<svg width="244" height="161" viewBox="0 0 244 161" fill="none" xmlns="http://www.w3.org/2000/svg">
<g clip-path="url(#clip0_7_22)">
<path d="M16.6473 161C16.2473 161 15.8873 160.86 15.5673 160.58C15.2873 160.26 15.1473 159.9 15.1473 159.5V120.5C15.1473 120.06 15.2873 119.7 15.5673 119.42C15.8873 119.14 16.2473 119 16.6473 119H32.2473C38.1273 119 42.6873 120.4 45.9273 123.2C49.1673 126 50.8673 130.06 51.0273 135.38C51.0673 136.54 51.0873 138.08 51.0873 140C51.0873 141.92 51.0673 143.44 51.0273 144.56C50.8273 150.12 49.1673 154.26 46.0473 156.98C42.9673 159.66 38.4673 161 32.5473 161H16.6473ZM32.2473 152.36C34.8873 152.36 36.8273 151.74 38.0673 150.5C39.3073 149.22 39.9673 147.2 40.0473 144.44C40.1273 143.28 40.1673 141.78 40.1673 139.94C40.1673 138.1 40.1273 136.62 40.0473 135.5C39.9673 132.82 39.2473 130.84 37.8873 129.56C36.5673 128.28 34.5873 127.64 31.9473 127.64H25.9473V152.36H32.2473ZM68.8365 161.6C64.0365 161.6 60.2565 160.3 57.4965 157.7C54.7365 155.1 53.2965 151.32 53.1765 146.36V144.26C53.3365 139.54 54.7965 135.86 57.5565 133.22C60.3565 130.54 64.0965 129.2 68.7765 129.2C72.1765 129.2 75.0365 129.9 77.3565 131.3C79.7165 132.66 81.4765 134.54 82.6365 136.94C83.8365 139.34 84.4365 142.1 84.4365 145.22V146.66C84.4365 147.06 84.2965 147.42 84.0165 147.74C83.7365 148.02 83.3765 148.16 82.9365 148.16H63.7365V148.58C63.8165 150.46 64.2765 151.98 65.1165 153.14C65.9565 154.3 67.1765 154.88 68.7765 154.88C69.7765 154.88 70.5965 154.68 71.2365 154.28C71.8765 153.84 72.4565 153.32 72.9765 152.72C73.3365 152.28 73.6165 152.02 73.8165 151.94C74.0565 151.82 74.4165 151.76 74.8965 151.76H82.3365C82.6965 151.76 82.9965 151.88 83.2365 152.12C83.5165 152.32 83.6565 152.6 83.6565 152.96C83.6565 154 83.0565 155.2 81.8565 156.56C80.6965 157.92 78.9965 159.1 76.7565 160.1C74.5165 161.1 71.8765 161.6 68.8365 161.6ZM73.8765 142.22V142.1C73.8765 140.14 73.4165 138.6 72.4965 137.48C71.6165 136.32 70.3765 135.74 68.7765 135.74C67.2165 135.74 65.9765 136.32 65.0565 137.48C64.1765 138.6 63.7365 140.14 63.7365 142.1V142.22H73.8765ZM96.9896 161C96.4296 161 95.9896 160.88 95.6696 160.64C95.3896 160.36 95.1496 159.98 94.9496 159.5L83.6096 131.66L83.4896 131.12C83.4896 130.76 83.6096 130.46 83.8496 130.22C84.1296 129.94 84.4696 129.8 84.8696 129.8H91.6496C92.5296 129.8 93.1096 130.22 93.3896 131.06L100.17 149.48L107.01 131.06C107.29 130.22 107.87 129.8 108.75 129.8H115.53C115.89 129.8 116.21 129.94 116.49 130.22C116.77 130.46 116.91 130.76 116.91 131.12L116.79 131.66L105.45 159.5C105.25 159.98 104.99 160.36 104.67 160.64C104.35 160.88 103.91 161 103.35 161H96.9896ZM136.817 161C136.417 161 136.057 160.86 135.737 160.58C135.457 160.26 135.317 159.9 135.317 159.5V128.42H124.637C124.237 128.42 123.877 128.28 123.557 128C123.277 127.68 123.137 127.32 123.137 126.92V120.5C123.137 120.06 123.277 119.7 123.557 119.42C123.877 119.14 124.237 119 124.637 119H156.917C157.357 119 157.717 119.14 157.997 119.42C158.277 119.7 158.417 120.06 158.417 120.5V126.92C158.417 127.36 158.277 127.72 157.997 128C157.717 128.28 157.357 128.42 156.917 128.42H146.237V159.5C146.237 159.9 146.097 160.26 145.817 160.58C145.537 160.86 145.177 161 144.737 161H136.817ZM164.296 161.6C162.176 161.6 160.236 161.2 158.476 160.4C156.756 159.56 155.396 158.44 154.396 157.04C153.436 155.6 152.956 154.02 152.956 152.3C152.956 149.54 154.076 147.32 156.316 145.64C158.596 143.96 161.716 142.8 165.676 142.16L173.176 141.02V140.18C173.176 138.66 172.856 137.54 172.216 136.82C171.576 136.1 170.496 135.74 168.976 135.74C168.056 135.74 167.296 135.9 166.696 136.22C166.096 136.54 165.476 136.98 164.836 137.54C164.276 138.02 163.856 138.34 163.576 138.5C163.456 138.82 163.236 138.98 162.916 138.98H156.376C155.976 138.98 155.636 138.86 155.356 138.62C155.116 138.34 155.016 138.02 155.056 137.66C155.096 136.58 155.616 135.38 156.616 134.06C157.656 132.74 159.216 131.6 161.296 130.64C163.416 129.68 166.016 129.2 169.096 129.2C174.016 129.2 177.656 130.3 180.016 132.5C182.376 134.66 183.556 137.58 183.556 141.26V159.5C183.556 159.9 183.416 160.26 183.136 160.58C182.856 160.86 182.496 161 182.056 161H175.096C174.696 161 174.336 160.86 174.016 160.58C173.736 160.26 173.596 159.9 173.596 159.5V157.4C172.716 158.64 171.476 159.66 169.876 160.46C168.316 161.22 166.456 161.6 164.296 161.6ZM167.116 154.76C168.956 154.76 170.436 154.16 171.556 152.96C172.716 151.76 173.296 150 173.296 147.68V146.84L168.196 147.74C164.596 148.38 162.796 149.64 162.796 151.52C162.796 152.52 163.216 153.32 164.056 153.92C164.896 154.48 165.916 154.76 167.116 154.76ZM188.827 161C188.427 161 188.067 160.86 187.747 160.58C187.467 160.26 187.327 159.9 187.327 159.5V119.9C187.327 119.46 187.467 119.1 187.747 118.82C188.067 118.54 188.427 118.4 188.827 118.4H195.907C196.347 118.4 196.707 118.54 196.987 118.82C197.267 119.1 197.407 119.46 197.407 119.9V159.5C197.407 159.94 197.267 160.3 196.987 160.58C196.707 160.86 196.347 161 195.907 161H188.827ZM202.995 161C202.595 161 202.235 160.86 201.915 160.58C201.635 160.26 201.495 159.9 201.495 159.5V119.9C201.495 119.46 201.635 119.1 201.915 118.82C202.235 118.54 202.595 118.4 202.995 118.4H209.955C210.395 118.4 210.755 118.54 211.035 118.82C211.315 119.1 211.455 119.46 211.455 119.9V140L219.795 130.82C219.875 130.74 220.015 130.6 220.215 130.4C220.455 130.2 220.695 130.06 220.935 129.98C221.175 129.86 221.455 129.8 221.775 129.8H229.815C230.175 129.8 230.475 129.94 230.715 130.22C230.995 130.46 231.135 130.76 231.135 131.12C231.135 131.56 230.975 131.9 230.655 132.14L219.855 143.78L232.155 158.72C232.475 159.04 232.635 159.34 232.635 159.62C232.635 160.02 232.495 160.36 232.215 160.64C231.975 160.88 231.655 161 231.255 161H223.035C222.515 161 222.115 160.92 221.835 160.76C221.595 160.6 221.295 160.34 220.935 159.98L211.455 148.58V159.5C211.455 159.9 211.315 160.26 211.035 160.58C210.755 160.86 210.395 161 209.955 161H202.995Z" fill="white"/>
<path d="M89.8077 83.6C89.3677 83.6 88.7443 83.3433 87.9377 82.83L48.3377 55.88C47.2377 55.1467 46.431 54.45 45.9177 53.79C45.4043 53.0567 45.1477 52.1767 45.1477 51.15V47.74C45.1477 46.7133 45.4043 45.8333 45.9177 45.1C46.431 44.3667 47.2377 43.6333 48.3377 42.9L87.9377 15.95C88.8177 15.51 89.441 15.29 89.8077 15.29C90.4677 15.29 91.0177 15.51 91.4577 15.95C91.8977 16.3167 92.1177 16.83 92.1177 17.49V29.37C92.1177 30.3967 91.8243 31.24 91.2377 31.9C90.7243 32.4867 89.991 33.0733 89.0377 33.66L65.0577 49.39L89.0377 65.23C90.0643 65.8167 90.8343 66.4033 91.3477 66.99C91.861 67.5767 92.1177 68.3833 92.1177 69.41V81.29C92.1177 81.95 91.8977 82.5 91.4577 82.94C91.0177 83.38 90.4677 83.6 89.8077 83.6ZM98.1238 97.24C97.4638 97.24 96.8772 96.9833 96.3638 96.47C95.9238 96.03 95.7038 95.5167 95.7038 94.93C95.7038 94.7833 95.8138 94.4167 96.0338 93.83L133.214 4.18C134.094 2.42 135.414 1.54 137.174 1.54H147.074C147.734 1.54 148.284 1.79666 148.724 2.31C149.164 2.74999 149.384 3.26333 149.384 3.85C149.384 4.21666 149.31 4.58333 149.164 4.94999L111.764 94.6C111.03 96.36 109.71 97.24 107.804 97.24H98.1238ZM155.234 83.6C154.647 83.6 154.134 83.38 153.694 82.94C153.254 82.5 153.034 81.95 153.034 81.29V69.41C153.034 68.3833 153.29 67.5767 153.804 66.99C154.317 66.4033 155.087 65.8167 156.114 65.23L179.984 49.39L156.114 33.66C155.16 33.0733 154.39 32.4867 153.804 31.9C153.29 31.24 153.034 30.3967 153.034 29.37V17.49C153.034 16.83 153.254 16.3167 153.694 15.95C154.134 15.51 154.647 15.29 155.234 15.29C155.747 15.29 156.37 15.51 157.104 15.95L196.814 42.9C197.914 43.6333 198.72 44.3667 199.234 45.1C199.747 45.8333 200.004 46.7133 200.004 47.74V51.15C200.004 52.1767 199.747 53.0567 199.234 53.79C198.72 54.45 197.914 55.1467 196.814 55.88L157.104 82.83C156.444 83.3433 155.82 83.6 155.234 83.6Z" fill="white"/>
</g>
<defs>
<clipPath id="clip0_7_22">
<rect width="244" height="161" fill="white"/>
</clipPath>
</defs>
</svg>
